<?xml version="1.0" encoding="utf-8"?>
<!-- Generator: Adobe Illustrator 21.1.0, SVG Export Plug-In . SVG Version: 6.00 Build 0)  -->
<svg version="1.1" id="Capa_1" xmlns="http://www.w3.org/2000/svg" xmlns:xlink="http://www.w3.org/1999/xlink" x="0px" y="0px"
	 viewBox="0 0 153.7 153.7" style="enable-background:new 0 0 153.7 153.7;" xml:space="preserve">
<style type="text/css">
	.st0{fill:#FFFFFF;}
</style>
<g>
	<path class="st0" d="M110.3,51.8c-2.9-2.9-7.7-2.9-10.6,0c-2.9,2.9-2.9,7.7,0,10.6c8,8,8,21,0,28.9c-2.9,2.9-2.9,7.7,0,10.6
		c1.5,1.5,3.4,2.2,5.3,2.2s3.8-0.7,5.3-2.2C124.1,88.1,124.1,65.6,110.3,51.8z"/>
	<path class="st0" d="M132.3,29.8c-2.9-2.9-7.7-2.9-10.6,0c-2.9,2.9-2.9,7.7,0,10.6c20.1,20.1,20.1,52.8,0,72.9
		c-2.9,2.9-2.9,7.7,0,10.6c1.5,1.5,3.4,2.2,5.3,2.2s3.8-0.7,5.3-2.2C158.2,97.9,158.2,55.7,132.3,29.8z"/>
	<path class="st0" d="M86.9,0.7c-2.7-1.2-5.8-0.8-8,1.1l-47.7,41H9.4c-4.1,0-7.5,3.4-7.5,7.5v53.1c0,4.1,3.4,7.5,7.5,7.5h21.8
		l47.7,41c1.4,1.2,3.1,1.8,4.9,1.8c1.1,0,2.1-0.2,3.1-0.7c2.7-1.2,4.4-3.9,4.4-6.8V7.5C91.3,4.6,89.6,1.9,86.9,0.7z M16.9,57.8h9.6
		v38.1h-9.6V57.8z M76.3,129.8L41.5,100V53.7l34.8-29.9V129.8z"/>
</g>
</svg>
